{
  "accessors": [
    {
      "bufferView": 2,
      "componentType": 5126,
      "count": 4755,
      "max": [
        1.8828999996185303,
        0.75758397579193115,
        5.5857901573181152
      ],
      "min": [
        -1.8828999996185303,
        -1.1665899753570557,
        0.0088239898905158043
      ],
      "type": "VEC3"
    },
    {
      "bufferView": 2,
      "byteOffset": 57060,
      "componentType": 5126,
      "count": 4755,
      "max": [
        1,
        0.9999690055847168,
        1
      ],
      "min": [
        -1,
        -0.99993801116943359,
        -1
      ],
      "type": "VEC3"
    },
    {
      "bufferView": 1,
      "componentType": 5126,
      "count": 4755,
      "max": [
        0.99250698089599609,
        0.99951201677322388
      ],
      "min": [
        0.023265000432729721,
        0.025699999183416367
      ],
      "type": "VEC2"
    },
    {
      "bufferView": 0,
      "componentType": 5125,
      "count": 20652,
      "max": [
        4754
      ],
      "min": [
        0
      ],
      "type": "SCALAR"
    }
  ],
  "asset": {
    "extras": {
      "author": "Yellow bonnie spring (https://sketchfab.com/1937gjsh837)",
      "license": "CC-BY-4.0 (http://creativecommons.org/licenses/by/4.0/)",
      "source": "https://sketchfab.com/3d-models/my-roblox-avatar-kabose3h-f607589c34b04f269faf35c78db5deb2",
      "title": "MY ROBLOX AVATAR!!! KABOSE3H"
    },
    "generator": "Sketchfab-9.85.0",
    "version": "2.0"
  },
  "bufferViews": [
    {
      "buffer": 0,
      "byteLength": 82608,
      "byteOffset": 0,
      "name": "floatBufferViews",
      "target": 34963
    },
    {
      "buffer": 0,
      "byteLength": 38040,
      "byteOffset": 82608,
      "byteStride": 8,
      "name": "floatBufferViews",
      "target": 34962
    },
    {
      "buffer": 0,
      "byteLength": 114120,
      "byteOffset": 120648,
      "byteStride": 12,
      "name": "floatBufferViews",
      "target": 34962
    }
  ],
  "buffers": [
    {
      "byteLength": 234768,
      "uri": "scene.bin"
    }
  ],
  "images": [
    {
      "uri": "textures/Kabose3h1Mtl_baseColor.png"
    }
  ],
  "materials": [
    {
      "doubleSided": true,
      "name": "Kabose3h1Mtl",
      "pbrMetallicRoughness": {
        "baseColorFactor": [
          1,
          1,
          1,
          1
        ],
        "baseColorTexture": {
          "index": 0,
          "texCoord": 0
        },
        "metallicFactor": 0,
        "roughnessFactor": 0.59999999999999998
      }
    }
  ],
  "meshes": [
    {
      "primitives": [
        {
          "attributes": {
            "NORMAL": 1,
            "POSITION": 0,
            "TEXCOORD_0": 2
          },
          "indices": 3,
          "material": 0,
          "mode": 4
        }
      ]
    }
  ],
  "nodes": [
    {
      "children": [
        1
      ],
      "name": "RootNode (gltf orientation matrix)",
      "rotation": [
        -0.70710678118654746,
        -0,
        -0,
        0.70710678118654757
      ]
    },
    {
      "children": [
        2
      ],
      "name": "RootNode (model correction matrix)"
    },
    {
      "children": [
        3
      ],
      "name": "KABOSE3H.obj.cleaner.materialmerger.gles"
    },
    {
      "mesh": 0,
      "name": ""
    }
  ],
  "samplers": [
    {
      "magFilter": 9729,
      "minFilter": 9987,
      "wrapS": 10497,
      "wrapT": 10497
    }
  ],
  "scene": 0,
  "scenes": [
    {
      "name": "OSG_Scene",
      "nodes": [
        0
      ]
    }
  ],
  "textures": [
    {
      "sampler": 0,
      "source": 0
    }
  ]
}

